<?xml version="1.0" encoding="UTF-8" standalone="no"?>
<svg
   version="1.1"
   viewBox="0 0 3839.5 1097.1"
   id="svg1"
   sodipodi:docname="mameh.svg"
   inkscape:version="1.4.2 (f4327f4, 2025-05-13)"
   xmlns:inkscape="http://www.inkscape.org/namespaces/inkscape"
   xmlns:sodipodi="http://sodipodi.sourceforge.net/DTD/sodipodi-0.dtd"
   xmlns="http://www.w3.org/2000/svg"
   xmlns:svg="http://www.w3.org/2000/svg">
  <defs
     id="defs1" />
  <sodipodi:namedview
     id="namedview1"
     pagecolor="#ffffff"
     bordercolor="#000000"
     borderopacity="0.25"
     inkscape:showpageshadow="2"
     inkscape:pageopacity="0.0"
     inkscape:pagecheckerboard="0"
     inkscape:deskcolor="#d1d1d1"
     inkscape:zoom="0.33960279"
     inkscape:cx="901.05267"
     inkscape:cy="781.7957"
     inkscape:window-width="3818"
     inkscape:window-height="2032"
     inkscape:window-x="142"
     inkscape:window-y="273"
     inkscape:window-maximized="0"
     inkscape:current-layer="svg1" />
  <polygon
     class="st1"
     points="3204.2,37.6 2683.3,558.5 2683.3,0 2335.1,348.2 2335.1,0 1748.2,586.9 1748.3,0 1189.8,558.5 1189.8,0 841.6,348.2 841.6,0 0,841.6 348.2,841.6 662.6,527.3 662.6,875.5 943.6,594.5 943.6,804.7 651.2,1097.1 999.4,1097.1 1502,594.6 1502,841.6 1599.1,841.6 1599.1,841.6 1841.8,841.6 2156.1,527.3 2156.1,875.5 2437.1,594.5 2437.1,804.7 2400.3,841.6 3260.3,841.6 3490.9,610.9 2979.2,610.9 3035.2,554.9 3178.8,554.9 3409.5,324.3 3265.8,324.3 3321.8,268.3 3608.8,268.3 3839.5,37.6 3211,37.6 "
     style="fill:#ffffff"
     id="polygon1"
     transform="matrix(0.87115625,0,0,0.79869999,247.34779,0)" />
  <path
     d="m 1122.8651,1050.7146 h -42.6731 v -54.96225 h -32.0049 v 54.96225 H 1005.514 V 895.35127 h 42.6731 v 54.94212 h 32.0049 v -54.94212 h 42.6731 z m 58.0522,-24.5959 -4.9532,24.5959 h -45.0285 l 34.5853,-155.36333 h 65.9149 l 34.6027,155.36333 h -45.0287 l -4.8837,-24.5959 z m 18.7561,-83.00836 h -2.3728 l -8.7633,43.50171 h 19.6568 z m 163.0032,63.11386 3.2038,41.7261 c -8.9537,4.3179 -20.1762,6.4769 -33.6847,6.4769 -13.5085,0 -24.3675,-1.6546 -32.5418,-4.9636 -8.1745,-3.3091 -14.6342,-8.5147 -19.3621,-15.617 -4.6589,-7.1629 -7.9495,-15.5364 -9.8198,-25.1407 -1.8356,-9.64455 -2.7536,-21.50865 -2.7536,-35.59225 0,-14.08359 0.918,-25.94768 2.7536,-35.59234 1.8703,-9.70518 5.1609,-18.13916 9.8198,-25.30203 9.1094,-13.74059 25.8221,-20.60077 50.1548,-20.60077 5.438,0 11.8114,0.62546 19.1198,1.85627 7.3084,1.25098 12.7463,2.78447 16.314,4.62056 l -6.4078,37.99341 c -9.2482,-2.30019 -17.6998,-3.45029 -25.3719,-3.45029 -7.6722,0 -13.0063,0.82728 -16.0024,2.48178 -2.996,1.6545 -4.5029,4.96356 -4.5029,9.9473 v 65.15166 c 5.542,1.3115 11.1532,1.9572 16.8512,1.9572 12.0883,0 22.8257,-1.9774 32.23,-5.9522 z m 61.637,-23.16325 h -0.8314 v 67.65365 h -42.673 V 895.35127 h 42.673 v 63.37615 h 0.8314 c 0.3114,-4.96356 1.0218,-8.93844 2.1476,-11.88432 l 20.9556,-51.49183 h 46.0156 l -32.0047,76.34999 33.0784,79.01334 h -46.033 l -22.0119,-55.66845 c -1.1258,-3.0266 -1.8358,-7.0216 -2.1476,-11.9852 z m 77.6742,64.88935 5.9403,-41.02 c 13.1102,3.8538 24.9042,5.7707 35.3646,5.7707 10.4606,0 18.8947,-0.5044 25.3025,-1.4931 v -12.42905 l -19.2062,-2.0581 c -17.3706,-1.7755 -29.2857,-6.5979 -35.7458,-14.4669 -6.4945,-7.869 -9.7504,-19.53138 -9.7504,-34.96682 0,-21.20611 3.9661,-35.7941 11.898,-43.78425 7.8627,-7.92957 21.2499,-11.88427 40.1447,-11.88427 18.9638,0 36.0226,2.05808 51.2113,6.21454 l -5.3343,39.76897 c -13.1969,-2.48178 -23.7959,-3.73276 -31.7798,-3.73276 -7.9665,0 -14.7206,0.4236 -20.2627,1.25098 v 12.16679 l 15.3961,1.77556 c 18.6523,2.11861 31.5201,7.30411 38.638,15.53632 7.1007,8.15156 10.6684,19.55164 10.6684,34.17994 0,10.41135 -1.2296,19.22865 -3.6715,26.45205 -2.4248,7.2234 -5.2996,12.6914 -8.6074,16.4242 -3.3425,3.7327 -8.0879,6.5575 -14.2534,8.5147 -6.0962,2.0177 -11.4475,3.2283 -16.0718,3.652 -4.6239,0.4035 -10.7721,0.6054 -18.4442,0.6054 -18.4964,0 -35.6418,-2.159 -51.4364,-6.4769 z m 198.2467,-56.89925 h -33.0786 v -35.77392 h 33.0786 v -38.53817 h 30.7058 v 38.53817 h 33.3039 v 35.77392 h -33.3039 v 38.80045 h -30.7058 z m 239.5689,59.66355 H 1897.13 v -54.96225 h -32.0047 v 54.96225 h -42.673 V 895.35127 h 42.673 v 54.94212 h 32.0047 v -54.94212 h 42.6734 z m 14.9287,-77.60095 c 0,-28.28823 4.5549,-48.94952 13.6469,-61.96376 9.075,-13.03437 25.5277,-19.53138 49.289,-19.53138 23.7785,0 40.214,6.49701 49.3061,19.53138 9.0924,13.01424 13.6471,33.67553 13.6471,61.96376 0,14.0836 -0.9698,25.9477 -2.8921,35.59225 -1.9396,9.6043 -5.2476,17.9778 -9.9063,25.1407 -4.676,7.1023 -11.1532,12.3079 -19.4314,15.617 -8.2437,3.309 -18.4792,4.9636 -30.7234,4.9636 -12.2444,0 -22.4795,-1.6546 -30.706,-4.9636 -8.2782,-3.3091 -14.7555,-8.5147 -19.4313,-15.617 -4.6761,-7.1629 -7.984,-15.5364 -9.9066,-25.1407 -1.9223,-9.64455 -2.892,-21.50865 -2.892,-35.59225 z m 45.877,-25.82662 v 64.62707 h 17.6824 c 5.8363,0 10.0794,-0.7667 12.7119,-2.3204 2.6497,-1.594 3.966,-5.2057 3.966,-10.81485 v -64.6473 h -17.9075 c -5.6979,0 -9.8543,0.78693 -12.4869,2.32037 -2.6496,1.59398 -3.9659,5.20568 -3.9659,10.83511 z m 136.7655,28.12682 -2.5805,75.30075 h -44.5783 l 8.0705,-155.36333 h 55.7142 l 16.6779,79.01338 h 1.4546 l 16.678,-79.01338 h 55.6275 l 8.1571,155.36333 h -44.5782 l -2.5805,-75.30075 h -1.524 l -16.1584,75.30075 h -32.6976 l -16.3834,-75.30075 z M 2353.927,955.9833 v 36.03625 h -42.6731 v 18.90585 h 52.2677 v 39.7892 h -94.9409 V 895.35127 h 93.8844 l -5.3342,39.76897 h -45.877 v 20.86306 z m 104.3103,94.7313 h -76.583 V 895.35127 h 69.1186 c 12.7985,0 21.9427,2.88531 27.4327,8.69632 5.4899,5.79079 8.2264,14.26517 8.2264,25.38274 0,11.07717 -1.7492,19.63226 -5.2647,25.66521 -3.4465,6.09348 -8.0881,10.02801 -13.9418,11.80357 v 1.51327 c 17.2324,3.49064 25.8396,17.15057 25.8396,41.01992 0,12.4291 -2.8404,22.4167 -8.5382,30.0033 -5.6805,7.5059 -14.4438,11.279 -26.2896,11.279 z m -17.3015,-61.88305 h -16.6085 v 25.30205 h 16.4526 c 5.9577,0 8.9193,-4.1969 8.9193,-12.6107 0,-8.45415 -2.9096,-12.69135 -8.7634,-12.69135 z m -3.2039,-59.40122 h -13.4046 v 23.08255 h 13.266 c 5.3861,0 8.0705,-3.83364 8.0705,-11.54127 0,-7.68746 -2.6324,-11.54128 -7.9319,-11.54128 z m 163.5055,69.61082 23.0165,51.67345 h -46.9509 l -17.5265,-46.2661 h -9.1442 v 46.2661 h -42.6731 V 895.35127 h 67.2136 c 30.5848,0 45.8769,18.13916 45.8769,54.41754 0,24.85814 -6.5983,41.28224 -19.8123,49.27234 z m -40.7682,-63.92091 h -9.8369 v 31.07265 h 9.8369 c 5.1265,0 8.8672,-0.62547 11.2051,-1.87644 2.3208,-1.23081 3.4985,-4.09594 3.4985,-8.59544 v -10.12889 c 0,-4.49946 -1.1777,-7.36459 -3.4985,-8.61556 -2.3379,-1.23081 -6.0786,-1.85632 -11.2051,-1.85632 z m 164.0594,20.86306 v 36.03625 h -42.6729 v 18.90585 h 52.2681 v 39.7892 h -94.9412 V 895.35127 h 93.8841 l -5.3338,39.76897 h -45.8772 v 20.86306 z m 137.3894,26.08895 10.2871,-86.72098 h 44.578 l -20.9556,155.36333 h -55.6277 l -9.8367,-57.18175 h -2.5977 l -9.5944,57.18175 h -55.6968 l -20.8864,-155.36333 h 44.5781 l 10.0626,86.72098 h 1.2984 l 15.3096,-86.72098 h 32.6979 l 15.0843,86.72098 z"
     style="white-space:pre;fill:#ffffff;stroke-width:18.6933"
     id="path1" />
</svg>
