<?xml version="1.0" encoding="UTF-8" standalone="no"?>
<svg
   version="1.1"
   viewBox="0 0 264 38"
   id="svg1"
   sodipodi:docname="n64h.svg"
   inkscape:version="1.4.3 (0d15f75, 2025-12-25)"
   xmlns:inkscape="http://www.inkscape.org/namespaces/inkscape"
   xmlns:sodipodi="http://sodipodi.sourceforge.net/DTD/sodipodi-0.dtd"
   xmlns="http://www.w3.org/2000/svg"
   xmlns:svg="http://www.w3.org/2000/svg">
  <defs
     id="defs1" />
  <sodipodi:namedview
     id="namedview1"
     pagecolor="#ffffff"
     bordercolor="#000000"
     borderopacity="0.25"
     inkscape:showpageshadow="2"
     inkscape:pageopacity="0.0"
     inkscape:pagecheckerboard="0"
     inkscape:deskcolor="#d1d1d1"
     inkscape:zoom="6.9848485"
     inkscape:cx="104.36876"
     inkscape:cy="-12.097614"
     inkscape:window-width="3818"
     inkscape:window-height="2032"
     inkscape:window-x="164"
     inkscape:window-y="131"
     inkscape:window-maximized="0"
     inkscape:current-layer="svg1" />
  <g
     transform="matrix(0.44,0,0.00660214,0.33245783,-0.28633518,1.1403877e-4)"
     id="g1">
    <polygon
       id="polygon3518"
       points="42.615,19.803 42.615,57.202 42.444,57.202 29.347,19.803 0,19.803 0,85.023 19.846,85.023 19.846,47.375 20.025,47.375 33.122,85.023 62.473,85.023 62.473,19.803 "
       style="fill:#ffffff;fill-opacity:1" />
    <polygon
       id="polygon3520"
       points="153.354,19.803 153.354,57.202 153.175,57.202 140.078,19.803 110.731,19.803 110.731,85.023 130.589,85.023 130.589,47.375 130.76,47.375 143.849,85.023 173.2,85.023 173.2,19.803 "
       style="fill:#ffffff;fill-opacity:1" />
    <polygon
       id="polygon3522"
       points="344.018,19.803 344.018,57.202 343.843,57.202 330.75,19.803 301.399,19.803 301.399,85.023 321.249,85.023 321.249,47.375 321.424,47.375 334.517,85.023 363.872,85.023 363.872,19.803 "
       style="fill:#ffffff;fill-opacity:1" />
    <polygon
       id="polygon3524"
       points="74.46,85.023 74.46,19.803 98.942,19.803 98.942,85.023 "
       style="fill:#ffffff;fill-opacity:1" />
    <polygon
       id="polygon3526"
       points="235.941,19.803 235.941,37.52 220.33,37.52 220.33,85.023 195.856,85.023 195.856,37.52 180.299,37.52 180.299,19.803 "
       style="fill:#ffffff;fill-opacity:1" />
    <polygon
       id="polygon3536"
       points="267.265,37.037 267.265,43.856 289.657,43.856 289.657,60.577 267.265,60.577 267.265,67.894 292.362,67.894 292.362,85.004 243.169,85.004 243.169,19.783 291.583,19.783 291.583,37.037 "
       style="fill:#ffffff;fill-opacity:1" />
    <path
       id="path3528"
       d="m 374.408,19.803 h 29.004 c 24.735,0 32.608,14 32.608,33.332 0,19.694 -12.147,31.888 -31.144,31.888 h -30.468 z m 23.964,50.399 h 2.386 c 3.939,0 6.577,-1.206 8.119,-3.826 1.623,-2.713 1.81,-7.648 1.81,-13.965 0,-6.321 -0.187,-11.252 -1.81,-13.969 -1.542,-2.623 -4.18,-3.83 -8.119,-3.83 h -2.386 z"
       style="fill:#ffffff;fill-opacity:1" />
    <path
       id="path3530"
       d="m 474.397,18.09 c 21.309,0 31.915,13.996 31.915,34.321 0,20.329 -10.61,34.329 -31.915,34.329 -21.317,0 -31.92,-14 -31.92,-34.329 0,-20.325 10.599,-34.321 31.92,-34.321 z m 0,52.124 c 3.76,0 6.589,-1.849 6.589,-17.803 0,-15.596 -2.662,-17.799 -6.589,-17.799 -3.935,0 -6.593,2.203 -6.593,17.799 0,15.954 2.825,17.803 6.593,17.803 z"
       style="fill:#ffffff;fill-opacity:1" />
    <polygon
       id="polygon3566"
       points="42.615,19.803 42.615,57.202 42.444,57.202 29.347,19.803 0,19.803 0,85.023 19.846,85.023 19.846,47.375 20.025,47.375 33.122,85.023 62.473,85.023 62.473,19.803 "
       style="fill:#ffffff;fill-opacity:1" />
    <polygon
       id="polygon3568"
       points="153.354,19.803 153.354,57.202 153.175,57.202 140.078,19.803 110.731,19.803 110.731,85.023 130.589,85.023 130.589,47.375 130.76,47.375 143.849,85.023 173.2,85.023 173.2,19.803 "
       style="fill:#ffffff;fill-opacity:1" />
    <polygon
       id="polygon3570"
       points="344.018,19.803 344.018,57.202 343.843,57.202 330.75,19.803 301.399,19.803 301.399,85.023 321.249,85.023 321.249,47.375 321.424,47.375 334.517,85.023 363.872,85.023 363.872,19.803 "
       style="fill:#ffffff;fill-opacity:1" />
    <polygon
       id="polygon3572"
       points="74.46,85.023 74.46,19.803 98.942,19.803 98.942,85.023 "
       style="fill:#ffffff;fill-opacity:1" />
    <polygon
       id="polygon3574"
       points="235.941,19.803 235.941,37.52 220.33,37.52 220.33,85.023 195.856,85.023 195.856,37.52 180.299,37.52 180.299,19.803 "
       style="fill:#ffffff;fill-opacity:1" />
    <polygon
       id="polygon3576"
       points="267.265,37.037 267.265,43.856 289.657,43.856 289.657,60.577 267.265,60.577 267.265,67.894 292.362,67.894 292.362,85.004 243.169,85.004 243.169,19.783 291.583,19.783 291.583,37.037 "
       style="fill:#ffffff;fill-opacity:1" />
    <path
       id="path3532"
       d="m 550.095,11.131 c -1.304,-0.113 -2.569,-0.062 -4.336,0.02 -10.326,0.478 -14.502,4.876 -15.919,9.851 h 0.249 c 2.573,-2.25 5.749,-3.297 10.007,-3.297 8.193,0 15.674,5.955 15.674,17.129 0,10.692 -8.22,19.021 -19.251,19.021 -14.533,0 -20.85,-11.1 -20.85,-23.002 0,-9.665 3.429,-17.854 9.057,-23.135 5.36,-4.963 12.264,-7.469 20.722,-7.664 2.238,-0.128 3.569,0 4.647,0.097 z m -13.759,32.208 c 3.348,0 5.379,-3.422 5.379,-7.792 -0.027,-3.686 -1.716,-7.707 -6.208,-7.707 -2.74,0 -4.88,1.74 -5.686,3.838 -0.311,0.646 -0.432,1.56 -0.432,3.117 0.288,4.169 2.296,8.544 6.866,8.544 z"
       style="fill:#ffffff;fill-opacity:1" />
    <path
       id="path3534"
       d="M 581.376,52.976 V 41.272 H 559.619 V 31.919 L 577.087,0.79 h 17.382 V 30.549 H 600 v 10.723 h -5.531 v 11.704 z m 0,-22.427 v -8.967 c 0,-3.317 0.199,-6.761 0.37,-10.389 h -0.284 c -1.619,3.523 -3.028,6.874 -4.865,10.513 l -4.278,8.687 -0.047,0.16 z"
       style="fill:#ffffff;fill-opacity:1" />
  </g>
  <path
     d="m 83.435436,37.422484 h -2.464 v -2.717 h -1.848 v 2.717 h -2.464 v -7.68 h 2.464 v 2.716 h 1.848 v -2.716 h 2.464 z m 3.351998,-1.215 -0.286,1.215 h -2.599998 l 1.997998,-7.68 h 3.806 l 1.997,7.68 h -2.6 l -0.282,-1.215 z m 1.083,-4.104 h -0.137 l -0.506,2.151 h 1.136 z m 9.412004,3.12 0.185,2.063 c -0.516,0.213 -1.164002,0.321 -1.945004,0.321 -0.78,0 -1.406,-0.083 -1.879,-0.246 -0.472,-0.164 -0.844,-0.421 -1.117,-0.772 -0.27,-0.356 -0.46,-0.768 -0.568,-1.242 -0.105,-0.478 -0.158,-1.065 -0.158,-1.761 0,-0.696 0.053,-1.283 0.158,-1.759 0.108,-0.481 0.298,-0.898 0.568,-1.251 0.525,-0.679 1.49,-1.019 2.895,-1.019 0.314,0 0.682002,0.031 1.104002,0.092 0.423002,0.062 0.737002,0.138 0.942002,0.229 l -0.37,1.878 c -0.534002,-0.114 -1.022002,-0.171 -1.465004,-0.171 -0.442,0 -0.75,0.04 -0.924,0.123 -0.173,0.082 -0.259,0.245 -0.259,0.492 v 3.221 c 0.319,0.064 0.644,0.096 0.972,0.096 0.698002,0 1.318004,-0.097 1.861004,-0.294 z m 3.560002,-1.145 h -0.049 v 3.344 h -2.464002 v -7.68 h 2.464002 v 3.133 h 0.049 c 0.017,-0.245 0.058,-0.442 0.123,-0.587 l 1.21,-2.546 h 2.658 l -1.848,3.774 1.909,3.906 h -2.657 l -1.272,-2.752 c -0.065,-0.149 -0.106,-0.347 -0.123,-0.592 z m 4.484,3.208 0.344,-2.027 c 0.756,0.189 1.437,0.285 2.041,0.285 0.605,0 1.091,-0.026 1.461,-0.075 v -0.614 l -1.109,-0.101 c -1.003,-0.088 -1.69,-0.327 -2.063,-0.716 -0.375,-0.389 -0.564,-0.965 -0.564,-1.729 0,-1.048 0.229,-1.768 0.687,-2.163 0.455,-0.393 1.227,-0.589 2.319,-0.589 1.094,0 2.08,0.102 2.956,0.308 l -0.308,1.966 c -0.762,-0.123 -1.373,-0.185 -1.834,-0.185 -0.461,0 -0.851,0.021 -1.171,0.062 v 0.601 l 0.889,0.088 c 1.077,0.105 1.821,0.361 2.231,0.768 0.411,0.404 0.616,0.967 0.616,1.69 0,0.515 -0.071,0.951 -0.211,1.308 -0.141,0.356 -0.307,0.627 -0.498,0.812 -0.193,0.184 -0.467,0.325 -0.822,0.42 -0.352,0.1 -0.661,0.16 -0.929,0.181 -0.266,0.02 -0.621,0.031 -1.065,0.031 -1.067,0 -2.057,-0.108 -2.97,-0.321 z m 11.447,-2.813 h -1.909 v -1.769 h 1.909 v -1.905 h 1.774 v 1.905 h 1.922 v 1.769 h -1.922 v 1.918 h -1.774 z m 13.833,2.949 h -2.464 v -2.717 h -1.848 v 2.717 h -2.464 v -7.68 h 2.464 v 2.716 h 1.848 v -2.716 h 2.464 z m 0.863,-3.836 c 0,-1.398 0.262,-2.42 0.787,-3.063 0.525,-0.644 1.474,-0.966 2.847,-0.966 1.373,0 2.321,0.322 2.847,0.966 0.524,0.643 0.787,1.665 0.787,3.063 0,0.696 -0.056,1.283 -0.167,1.761 -0.112,0.474 -0.303,0.886 -0.572,1.242 -0.27,0.351 -0.644,0.608 -1.122,0.772 -0.475,0.163 -1.066,0.246 -1.773,0.246 -0.708,0 -1.298,-0.083 -1.773,-0.246 -0.479,-0.164 -0.853,-0.421 -1.122,-0.772 -0.27,-0.356 -0.461,-0.768 -0.572,-1.242 -0.112,-0.478 -0.167,-1.065 -0.167,-1.761 z m 2.648,-1.277 v 3.195 h 1.021 c 0.337,0 0.582,-0.039 0.735,-0.113 0.152,-0.08 0.229,-0.259 0.229,-0.536 v -3.195 h -1.034 c -0.329,0 -0.57,0.037 -0.722,0.114 -0.153,0.079 -0.229,0.257 -0.229,0.535 z m 7.897,1.392 -0.149,3.721 h -2.574 l 0.466,-7.68 h 3.217 l 0.963,3.906 h 0.084 l 0.963,-3.906 h 3.212 l 0.471,7.68 h -2.574 l -0.149,-3.721 h -0.088 l -0.933,3.721 h -1.888 l -0.946,-3.721 z m 12.504,-0.962 v 1.782 h -2.464 v 0.935 h 3.019 v 1.966 h -5.483 v -7.68 h 5.421 l -0.308,1.966 h -2.649 v 1.031 z m 6.023,4.683 h -4.422 v -7.68 h 3.991 c 0.739,0 1.267,0.143 1.584,0.43 0.317,0.286 0.475,0.705 0.475,1.255 0,0.547 -0.101,0.97 -0.303,1.268 -0.199,0.302 -0.468,0.496 -0.806,0.584 v 0.075 c 0.995,0.172 1.492,0.848 1.492,2.028 0,0.614 -0.164,1.108 -0.493,1.483 -0.328,0.371 -0.834,0.557 -1.518,0.557 z m -0.999,-3.059 h -0.959 v 1.251 h 0.951 c 0.343,0 0.514,-0.208 0.514,-0.623 0,-0.419 -0.168,-0.628 -0.506,-0.628 z m -0.184,-2.936 h -0.775 v 1.141 h 0.766 c 0.311,0 0.466,-0.191 0.466,-0.571 0,-0.38 -0.152,-0.57 -0.457,-0.57 z m 9.44,3.441 1.329,2.554 h -2.71 l -1.012,-2.287 h -0.528 v 2.287 h -2.464 v -7.68 h 3.88 c 1.767,0 2.649,0.896 2.649,2.69 0,1.229 -0.381,2.041 -1.144,2.436 z m -2.354,-3.16 h -0.567 v 1.536 h 0.567 c 0.297,0 0.512,-0.031 0.647,-0.092 0.135,-0.062 0.202,-0.204 0.202,-0.426 v -0.5 c 0,-0.223 -0.067,-0.364 -0.202,-0.426 -0.135,-0.061 -0.35,-0.092 -0.647,-0.092 z m 9.473,1.031 v 1.782 h -2.464 v 0.935 h 3.019 v 1.966 h -5.483 v -7.68 h 5.421 l -0.308,1.966 h -2.649 v 1.031 z m 7.933,1.291 0.594,-4.288 h 2.574 l -1.21,7.68 h -3.212 l -0.568,-2.826 h -0.149 l -0.555,2.826 h -3.216 l -1.206,-7.68 h 2.574 l 0.581,4.288 h 0.075 l 0.884,-4.288 h 1.888 l 0.871,4.288 z"
     style="white-space:pre;fill:#ffffff"
     id="path1" />
</svg>
