<?xml version="1.0" encoding="UTF-8" standalone="no"?>
<svg
   version="1.1"
   viewBox="0 0 3839 671.9"
   id="svg6"
   sodipodi:docname="neogeoh.svg"
   inkscape:version="1.4.2 (f4327f4, 2025-05-13)"
   xmlns:inkscape="http://www.inkscape.org/namespaces/inkscape"
   xmlns:sodipodi="http://sodipodi.sourceforge.net/DTD/sodipodi-0.dtd"
   xmlns="http://www.w3.org/2000/svg"
   xmlns:svg="http://www.w3.org/2000/svg">
  <defs
     id="defs6" />
  <sodipodi:namedview
     id="namedview6"
     pagecolor="#ffffff"
     bordercolor="#000000"
     borderopacity="0.25"
     inkscape:showpageshadow="2"
     inkscape:pageopacity="0.0"
     inkscape:pagecheckerboard="0"
     inkscape:deskcolor="#d1d1d1"
     inkscape:zoom="0.33964702"
     inkscape:cx="1957.915"
     inkscape:cy="980.42963"
     inkscape:window-width="2830"
     inkscape:window-height="1289"
     inkscape:window-x="584"
     inkscape:window-y="246"
     inkscape:window-maximized="0"
     inkscape:current-layer="svg6" />
  <path
     class="st3"
     d="M 641.90456,13.324953 H 447.32755 v 21.319926 h 25.3449 c 34.02603,0 61.56616,26.483345 61.56616,54.715589 V 352.86142 L 202.45987,13.324953 H 0 v 21.319926 c 45.201735,0 80.924078,34.061912 80.924078,71.871471 v 369.26777 c 0,37.72627 -47.696312,50.3017 -80.924078,50.3017 v 21.31992 H 219.92191 V 526.08582 C 178.7115,525.91926 156.95879,521.17224 142.88937,510.09587 128.81996,498.93622 125.0282,484.19549 125.0282,463.95822 V 117.84256 l 429.56616,437.14175 h 23.44902 V 89.943436 c 0,-27.565998 25.84382,-50.967946 63.86118,-52.133881 z"
     style="fill:#ffffff;stroke-width:0.911594"
     id="path1" />
  <ellipse
     class="st3"
     cx="1939.4836"
     cy="278.65811"
     style="fill:#ffffff;stroke-width:0.911594"
     id="circle1"
     rx="74.238617"
     ry="61.961037" />
  <path
     class="st3"
     d="m 2357.4751,297.56286 v 25.8171 h 24.1475 c 39.2147,0 50.3904,15.82338 50.3904,44.05564 v 126.25392 c -8.9805,9.16092 -39.6139,20.65368 -82.8199,20.65368 -8.781,0 -58.8721,-0.83281 -96.2907,-26.48335 -39.115,-26.81646 -65.4577,-81.11564 -65.4577,-210.20113 0,-168.06098 70.846,-239.266198 173.5228,-239.266198 33.4273,0 146.6811,18.821497 194.8763,140.411688 h 30.2343 V 3.4145193 h -28.538 C 2553.9479,26.983031 2531.5965,40.058141 2489.3883,25.400692 2425.6269,3.3312383 2368.6508,0 2326.9414,0 c -164.2429,0 -304.2386,127.00347 -304.2386,278.6581 0,174.72344 158.0564,277.07573 327.7874,277.07573 80.4252,0 165.7397,-15.49025 233.2929,-44.05563 V 367.4356 c 0,-33.81209 28.2386,-44.05564 66.3557,-44.05564 v -25.8171 z"
     style="fill:#ffffff;stroke-width:0.911594"
     id="path2" />
  <path
     class="st3"
     d="m 1182.6291,382.59272 c -15.8655,73.20396 -91.5011,130.33471 -176.3167,128.50252 h -73.24082 c -22.9501,0 -41.60954,-15.57353 -41.60954,-34.72816 V 289.15149 h 20.0564 c 59.86985,0 98.08676,41.80704 98.08676,113.7618 h 26.243 V 275.41013 268.91422 143.82621 h -26.243 c 0,63.29354 -32.03036,109.01478 -98.18654,109.01478 h -20.0564 V 45.388123 h 105.27115 c 141.69199,0 146.48159,105.350407 146.48159,118.925207 h 28.2386 V 49.885294 13.324953 H 660.76356 v 21.236646 h 36.02169 c 27.54013,0 49.89154,21.73633 49.89154,44.638593 V 472.3696 c 0,41.39064 -32.52928,50.80138 -60.06941,50.80138 h -25.84382 v 24.31804 h 85.91323 432.06071 l 29.1367,-164.8963 z"
     style="fill:#ffffff;stroke-width:0.911594"
     id="path3" />
  <path
     class="st3"
     d="m 1530.1735,7.7451292 c -184.1995,0 -325.9913,113.1788308 -325.9913,275.9098108 0,162.731 141.8916,275.90982 325.9913,275.90982 184.1996,0 326.0911,-113.17882 326.0911,-275.90982 0,-162.73098 -141.8915,-275.9098108 -326.0911,-275.9098108 z m 0,516.0921008 c -88.5076,0 -160.052,-67.62414 -160.052,-240.26556 0,-172.64144 71.744,-240.182291 160.052,-240.182291 88.5076,0 160.0521,67.624141 160.0521,240.265561 0.1996,172.55815 -71.5445,240.18229 -160.0521,240.18229 z"
     style="fill:#ffffff;stroke-width:0.911594"
     id="path4" />
  <path
     class="st3"
     d="m 3157.0369,382.59272 c -15.8655,73.20396 -91.5011,130.33471 -176.3167,128.50252 h -73.2408 c -22.9501,0 -41.6096,-15.57353 -41.6096,-34.72816 V 289.15149 h 20.0564 c 59.8699,0 98.0868,41.80704 98.0868,113.7618 h 26.243 V 275.41013 268.91422 143.82621 h -26.243 c 0,63.29354 -32.0304,109.01478 -98.1865,109.01478 h -20.0564 V 45.388123 h 105.2711 c 141.692,0 146.4816,105.350407 146.4816,118.925207 h 28.2386 V 49.885294 13.324953 h -510.59 v 21.236646 h 36.0217 c 27.5401,0 49.8915,21.73633 49.8915,44.638593 V 472.3696 c 0,41.39064 -32.5293,50.80138 -60.0694,50.80138 h -25.8438 v 24.31804 h 85.9132 432.0607 l 29.1367,-164.8963 z"
     style="fill:#ffffff;stroke-width:0.911594"
     id="path5" />
  <path
     class="st3"
     d="m 3504.5813,7.7451292 c -184.1995,0 -325.9913,113.1788308 -325.9913,275.9098108 0,162.731 141.8916,275.90982 325.9913,275.90982 184.1996,0 326.0912,-113.17882 326.0912,-275.90982 0,-162.73098 -141.8916,-275.9098108 -326.0912,-275.9098108 z m 0,516.0921008 c -88.5075,0 -160.052,-67.62414 -160.052,-240.26556 0,-172.64144 71.744,-240.265572 160.052,-240.265572 88.5076,0 160.0521,67.624132 160.0521,240.265572 0.1996,172.64142 -71.5445,240.26556 -160.0521,240.26556 z"
     style="fill:#ffffff;stroke-width:0.911594"
     id="path6" />
  <path
     d="m 1144.7375,665.66085 h -41.9266 v -24.14649 h -31.4445 v 24.14649 h -41.9259 v -68.25431 h 41.9259 v 24.13763 h 31.4445 v -24.13763 h 41.9266 z m 57.0523,-10.81239 -4.8658,10.81239 h -44.2576 l 33.997,-68.25431 h 64.7604 l 33.9805,68.25431 h -44.2402 l -4.7984,-10.81239 z m 18.411,-36.46307 h -2.3142 l -8.6101,19.11193 h 19.3128 z m 160.1493,27.72998 3.1478,18.32444 c -8.7799,1.91119 -19.8059,2.8491 -33.0952,2.8491 -13.2717,0 -23.9237,-0.72556 -31.9717,-2.17664 -8.0311,-1.45993 -14.3777,-3.74276 -19.0062,-6.86614 -4.5945,-3.14107 -7.8107,-6.82189 -9.6652,-11.04243 -1.803,-4.23826 -2.6883,-9.44978 -2.6883,-15.63461 0,-6.18483 0.8853,-11.39637 2.6883,-15.63462 1.8545,-4.26478 5.0707,-7.97214 9.6652,-11.11323 8.9331,-6.04325 25.3527,-9.05161 49.2599,-9.05161 5.3423,0 11.6038,0.27429 18.7849,0.81402 7.1977,0.54858 12.5398,1.22105 16.0283,2.02622 l -6.2957,16.69639 c -9.0689,-1.00868 -17.3899,-1.52187 -24.9274,-1.52187 -7.5382,0 -12.7788,0.3716 -15.7227,1.09716 -2.943,0.72554 -4.4237,2.17664 -4.4237,4.37097 v 28.61478 c 5.4448,0.57512 10.9751,0.85827 16.5563,0.85827 11.8761,0 22.4433,-0.86713 31.6654,-2.6102 z m 60.5749,-10.17532 h -0.832 v 29.7208 h -41.9257 v -68.25431 h 41.9257 v 27.84499 h 0.832 c 0.2888,-2.18549 0.9868,-3.92856 2.0927,-5.22039 l 20.5895,-22.6246 h 45.2094 l -31.4447,33.54318 32.4998,34.71113 h -45.2269 l -21.6271,-24.45617 c -1.1059,-1.32723 -1.803,-3.08799 -2.0927,-5.26463 z m 76.3141,28.49976 5.8369,-18.01476 c 12.8805,1.69 24.4512,2.53058 34.7282,2.53058 10.2948,0 18.5809,-0.22121 24.86,-0.65477 v -5.45929 l -18.8706,-0.9025 c -17.066,-0.77864 -28.7731,-2.89334 -35.103,-6.35295 -6.3972,-3.45961 -9.5794,-8.58266 -9.5794,-15.36032 0,-9.31706 3.8791,-15.72308 11.6722,-19.23579 7.7423,-3.4773 20.8949,-5.22038 39.4591,-5.22038 18.615,0 35.3919,0.90252 50.3144,2.72522 l -5.2406,17.47501 c -12.9829,-1.08831 -23.396,-1.63689 -31.2232,-1.63689 -7.8438,0 -14.48,0.18577 -19.9248,0.54858 v 5.34425 l 15.1264,0.77865 c 18.326,0.92903 30.9683,3.203 37.9618,6.82189 6.9929,3.58348 10.4814,8.5915 10.4814,15.01523 0,4.57448 -1.1909,8.44994 -3.59,11.61758 -2.3993,3.17646 -5.2241,5.58314 -8.4569,7.22005 -3.301,1.63689 -7.9629,2.87564 -14.0038,3.74276 -5.9893,0.88481 -11.264,1.41568 -15.8077,1.60149 -4.5428,0.17708 -10.5663,0.26546 -18.1044,0.26546 -18.1719,0 -35.0172,-0.93791 -50.536,-2.8491 z m 194.7593,-24.99592 h -32.4821 v -15.71423 h 32.4821 v -16.92643 h 30.1679 v 16.92643 h 32.7213 v 15.71423 h -32.7213 v 17.05031 h -30.1679 z m 235.3743,26.21696 h -41.9259 v -24.14649 h -31.4445 v 24.14649 h -41.9259 v -68.25431 h 41.9259 v 24.13763 h 31.4445 v -24.13763 h 41.9259 z m 14.6675,-34.09176 c 0,-12.4316 4.4754,-21.50091 13.4085,-27.21679 8.9333,-5.73358 25.0806,-8.58267 48.4432,-8.58267 23.3617,0 39.5099,2.84909 48.443,8.58267 8.9157,5.71588 13.391,14.78519 13.391,27.21679 0,6.18483 -0.9527,11.39635 -2.8415,15.63461 -1.8887,4.22054 -5.139,7.90136 -9.7333,11.04243 -4.5936,3.12338 -10.9577,5.40621 -19.0914,6.86614 -8.0819,1.45108 -18.1385,2.17664 -30.1678,2.17664 -12.0302,0 -22.0868,-0.72556 -30.1689,-2.17664 -8.1503,-1.45993 -14.5144,-3.74276 -19.0913,-6.86614 -4.5944,-3.14107 -7.8438,-6.82189 -9.7326,-11.04243 -1.9061,-4.23826 -2.8589,-9.44978 -2.8589,-15.63461 z m 45.0738,-11.34329 v 28.38474 h 17.3733 c 5.7344,0 9.9025,-0.33622 12.5064,-1.01753 2.5859,-0.699 3.8967,-2.28281 3.8967,-4.75144 v -28.39358 h -17.5939 c -5.5989,0 -9.6819,0.34508 -12.286,1.01754 -2.6033,0.699 -3.8965,2.2828 -3.8965,4.76027 z m 134.3884,12.35197 -2.5525,33.08308 h -43.7979 l 7.9463,-68.25431 h 54.7222 l 16.4022,34.71113 h 1.4123 l 16.4032,-34.71113 h 54.6539 l 8.0137,68.25431 h -43.797 l -2.5524,-33.08308 h -1.4973 l -15.8761,33.08308 h -32.1082 l -16.0968,-33.08308 z m 212.7446,-8.53842 v 15.8381 h -41.9268 v 8.29953 h 51.3704 v 17.48387 h -93.2962 v -68.25431 h 92.241 l -5.2406,17.47501 h -45.0746 v 9.1578 z m 102.4841,41.6215 h -75.2427 v -68.25431 h 67.9083 c 12.575,0 21.5589,1.27412 26.9527,3.82238 5.3939,2.53941 8.082,6.26446 8.082,11.1486 0,4.86648 -1.7179,8.62693 -5.1557,11.2725 -3.4026,2.68099 -7.963,4.40636 -13.6974,5.185 v 0.67245 c 16.9136,1.53073 25.3704,7.52975 25.3704,18.01475 0,5.45929 -2.7907,9.85679 -8.3884,13.18369 -5.5813,3.30034 -14.1913,4.95494 -25.8292,4.95494 z m -16.982,-27.19024 h -16.3348 v 11.11322 h 16.1816 c 5.836,0 8.7632,-1.84041 8.7632,-5.53891 0,-3.70736 -2.8755,-5.57431 -8.61,-5.57431 z m -3.1479,-26.09309 h -13.1869 v 10.13994 h 13.0337 c 5.2923,0 7.9296,-1.68114 7.9296,-5.06996 0,-3.37998 -2.5865,-5.06998 -7.7764,-5.06998 z m 160.6257,30.57909 22.6139,22.70424 h -46.1123 l -17.2191,-20.32411 h -8.9839 v 20.32411 h -41.9268 v -68.25431 h 66.0371 c 30.0322,0 45.0571,7.97214 45.0571,23.90759 0,10.91856 -6.4831,18.12976 -19.466,21.64248 z m -40.0538,-28.07506 h -9.6476 v 13.64378 h 9.6476 c 5.0533,0 8.7116,-0.27429 11.0084,-0.82287 2.2976,-0.53973 3.4543,-1.79616 3.4543,-3.77815 v -4.44175 c 0,-1.98197 -1.1567,-3.23841 -3.4543,-3.78699 -2.2968,-0.53973 -5.9551,-0.81402 -11.0084,-0.81402 z m 161.187,9.1578 v 15.8381 h -41.9259 v 8.29953 h 51.3695 v 17.48387 h -93.2954 v -68.25431 h 92.2403 l -5.2406,17.47501 h -45.0738 v 9.1578 z m 134.9836,11.46714 10.1074,-38.09995 h 43.798 l -20.5895,68.25431 h -54.653 l -9.6652,-25.11979 h -2.5349 l -9.4436,25.11979 h -54.7223 l -20.5202,-68.25431 h 43.798 l 9.8858,38.09995 h 1.2765 l 15.0416,-38.09995 h 32.1249 l 14.8209,38.09995 z"
     style="white-space:pre;fill:#ffffff;stroke-width:12.2701"
     id="path1-0" />
</svg>
